<mxfile host="app.diagrams.net" agent="Mozilla/5.0 (X11; Linux x86_64) AppleWebKit/537.36 (KHTML, like Gecko) Chrome/131.0.0.0 Safari/537.36" version="25.0.3">
  <diagram name="第 1 页" id="6AahsbGGm6CuqiCBJw5e">
    <mxGraphModel dx="1768" dy="1201" grid="1" gridSize="10" guides="1" tooltips="1" connect="1" arrows="1" fold="1" page="0" pageScale="1" pageWidth="827" pageHeight="1169" math="0" shadow="0">
      <root>
        <mxCell id="0" />
        <mxCell id="1" parent="0" />
        <mxCell id="TbGTZ6DAOj_NYZT9SBEf-3" style="edgeStyle=none;curved=1;rounded=0;orthogonalLoop=1;jettySize=auto;html=1;entryX=0.5;entryY=0;entryDx=0;entryDy=0;fontSize=12;startSize=8;endSize=8;" edge="1" parent="1" source="TbGTZ6DAOj_NYZT9SBEf-1" target="TbGTZ6DAOj_NYZT9SBEf-2">
          <mxGeometry relative="1" as="geometry" />
        </mxCell>
        <mxCell id="TbGTZ6DAOj_NYZT9SBEf-1" value="&lt;p data-pm-slice=&quot;1 1 [&amp;quot;ordered_list&amp;quot;,{&amp;quot;spread&amp;quot;:false,&amp;quot;startingNumber&amp;quot;:1,&amp;quot;start&amp;quot;:1496,&amp;quot;end&amp;quot;:1820},&amp;quot;regular_list_item&amp;quot;,{&amp;quot;start&amp;quot;:1496,&amp;quot;end&amp;quot;:1501}]&quot;&gt;開始&lt;/p&gt;" style="ellipse;whiteSpace=wrap;html=1;" vertex="1" parent="1">
          <mxGeometry x="-220" y="-200" width="120" height="80" as="geometry" />
        </mxCell>
        <mxCell id="TbGTZ6DAOj_NYZT9SBEf-5" style="edgeStyle=none;curved=1;rounded=0;orthogonalLoop=1;jettySize=auto;html=1;exitX=0.5;exitY=1;exitDx=0;exitDy=0;entryX=0.5;entryY=0;entryDx=0;entryDy=0;fontSize=12;startSize=8;endSize=8;" edge="1" parent="1" source="TbGTZ6DAOj_NYZT9SBEf-2" target="TbGTZ6DAOj_NYZT9SBEf-4">
          <mxGeometry relative="1" as="geometry" />
        </mxCell>
        <mxCell id="TbGTZ6DAOj_NYZT9SBEf-2" value="&lt;p data-pm-slice=&quot;1 1 [&amp;quot;ordered_list&amp;quot;,{&amp;quot;spread&amp;quot;:false,&amp;quot;startingNumber&amp;quot;:1,&amp;quot;start&amp;quot;:1496,&amp;quot;end&amp;quot;:1820},&amp;quot;regular_list_item&amp;quot;,{&amp;quot;start&amp;quot;:1502,&amp;quot;end&amp;quot;:1545}]&quot;&gt;初始化 &lt;code&gt;deque&lt;/code&gt;, &lt;code&gt;unordered_map&lt;/code&gt; (記錄頻率) 和計數器&lt;/p&gt;" style="rounded=1;whiteSpace=wrap;html=1;" vertex="1" parent="1">
          <mxGeometry x="-245" y="-80" width="170" height="60" as="geometry" />
        </mxCell>
        <mxCell id="TbGTZ6DAOj_NYZT9SBEf-15" style="edgeStyle=none;curved=1;rounded=0;orthogonalLoop=1;jettySize=auto;html=1;entryX=0.5;entryY=0;entryDx=0;entryDy=0;fontSize=12;startSize=8;endSize=8;" edge="1" parent="1" source="TbGTZ6DAOj_NYZT9SBEf-4" target="TbGTZ6DAOj_NYZT9SBEf-6">
          <mxGeometry relative="1" as="geometry" />
        </mxCell>
        <mxCell id="TbGTZ6DAOj_NYZT9SBEf-16" style="edgeStyle=none;curved=1;rounded=0;orthogonalLoop=1;jettySize=auto;html=1;entryX=0.5;entryY=0;entryDx=0;entryDy=0;fontSize=12;startSize=8;endSize=8;" edge="1" parent="1" source="TbGTZ6DAOj_NYZT9SBEf-4" target="TbGTZ6DAOj_NYZT9SBEf-10">
          <mxGeometry relative="1" as="geometry" />
        </mxCell>
        <mxCell id="TbGTZ6DAOj_NYZT9SBEf-4" value="&lt;p data-pm-slice=&quot;1 1 [&amp;quot;ordered_list&amp;quot;,{&amp;quot;spread&amp;quot;:false,&amp;quot;startingNumber&amp;quot;:1,&amp;quot;start&amp;quot;:1496,&amp;quot;end&amp;quot;:1820},&amp;quot;regular_list_item&amp;quot;,{&amp;quot;start&amp;quot;:1546,&amp;quot;end&amp;quot;:1779},&amp;quot;list&amp;quot;,{&amp;quot;spread&amp;quot;:false,&amp;quot;start&amp;quot;:1568,&amp;quot;end&amp;quot;:1779},&amp;quot;regular_list_item&amp;quot;,{&amp;quot;start&amp;quot;:1568,&amp;quot;end&amp;quot;:1779}]&quot;&gt;頁面是否存在於 &lt;code&gt;deque&lt;/code&gt; 中？&lt;/p&gt;" style="rhombus;whiteSpace=wrap;html=1;" vertex="1" parent="1">
          <mxGeometry x="-270" y="20" width="220" height="80" as="geometry" />
        </mxCell>
        <mxCell id="TbGTZ6DAOj_NYZT9SBEf-18" style="edgeStyle=none;curved=1;rounded=0;orthogonalLoop=1;jettySize=auto;html=1;entryX=0.5;entryY=0;entryDx=0;entryDy=0;fontSize=12;startSize=8;endSize=8;" edge="1" parent="1" source="TbGTZ6DAOj_NYZT9SBEf-6" target="TbGTZ6DAOj_NYZT9SBEf-17">
          <mxGeometry relative="1" as="geometry" />
        </mxCell>
        <mxCell id="TbGTZ6DAOj_NYZT9SBEf-6" value="&lt;p data-pm-slice=&quot;1 1 [&amp;quot;ordered_list&amp;quot;,{&amp;quot;spread&amp;quot;:false,&amp;quot;startingNumber&amp;quot;:1,&amp;quot;start&amp;quot;:1496,&amp;quot;end&amp;quot;:1820},&amp;quot;regular_list_item&amp;quot;,{&amp;quot;start&amp;quot;:1546,&amp;quot;end&amp;quot;:1779},&amp;quot;list&amp;quot;,{&amp;quot;spread&amp;quot;:false,&amp;quot;start&amp;quot;:1568,&amp;quot;end&amp;quot;:1779},&amp;quot;regular_list_item&amp;quot;,{&amp;quot;start&amp;quot;:1568,&amp;quot;end&amp;quot;:1779},&amp;quot;list&amp;quot;,{&amp;quot;spread&amp;quot;:false,&amp;quot;start&amp;quot;:1594,&amp;quot;end&amp;quot;:1779},&amp;quot;regular_list_item&amp;quot;,{&amp;quot;start&amp;quot;:1649,&amp;quot;end&amp;quot;:1779},&amp;quot;list&amp;quot;,{&amp;quot;spread&amp;quot;:false,&amp;quot;start&amp;quot;:1661,&amp;quot;end&amp;quot;:1779},&amp;quot;regular_list_item&amp;quot;,{&amp;quot;start&amp;quot;:1661,&amp;quot;end&amp;quot;:1679}]&quot;&gt;增加 Page Fault 計數&lt;/p&gt;" style="rounded=1;whiteSpace=wrap;html=1;" vertex="1" parent="1">
          <mxGeometry x="-320" y="140" width="120" height="60" as="geometry" />
        </mxCell>
        <mxCell id="TbGTZ6DAOj_NYZT9SBEf-37" style="edgeStyle=none;curved=1;rounded=0;orthogonalLoop=1;jettySize=auto;html=1;fontSize=12;startSize=8;endSize=8;" edge="1" parent="1" source="TbGTZ6DAOj_NYZT9SBEf-10" target="TbGTZ6DAOj_NYZT9SBEf-36">
          <mxGeometry relative="1" as="geometry" />
        </mxCell>
        <mxCell id="TbGTZ6DAOj_NYZT9SBEf-10" value="&lt;p data-pm-slice=&quot;1 1 [&amp;quot;ordered_list&amp;quot;,{&amp;quot;spread&amp;quot;:false,&amp;quot;startingNumber&amp;quot;:1,&amp;quot;start&amp;quot;:1496,&amp;quot;end&amp;quot;:1820},&amp;quot;regular_list_item&amp;quot;,{&amp;quot;start&amp;quot;:1546,&amp;quot;end&amp;quot;:1779},&amp;quot;list&amp;quot;,{&amp;quot;spread&amp;quot;:false,&amp;quot;start&amp;quot;:1568,&amp;quot;end&amp;quot;:1779},&amp;quot;regular_list_item&amp;quot;,{&amp;quot;start&amp;quot;:1568,&amp;quot;end&amp;quot;:1779},&amp;quot;list&amp;quot;,{&amp;quot;spread&amp;quot;:false,&amp;quot;start&amp;quot;:1594,&amp;quot;end&amp;quot;:1779},&amp;quot;regular_list_item&amp;quot;,{&amp;quot;start&amp;quot;:1594,&amp;quot;end&amp;quot;:1643},&amp;quot;list&amp;quot;,{&amp;quot;spread&amp;quot;:false,&amp;quot;start&amp;quot;:1606,&amp;quot;end&amp;quot;:1643},&amp;quot;regular_list_item&amp;quot;,{&amp;quot;start&amp;quot;:1606,&amp;quot;end&amp;quot;:1616}]&quot;&gt;增加該頁面的頻率&lt;/p&gt;" style="rounded=1;whiteSpace=wrap;html=1;" vertex="1" parent="1">
          <mxGeometry x="-120" y="140" width="120" height="60" as="geometry" />
        </mxCell>
        <mxCell id="TbGTZ6DAOj_NYZT9SBEf-20" style="edgeStyle=none;curved=1;rounded=0;orthogonalLoop=1;jettySize=auto;html=1;entryX=0.5;entryY=0;entryDx=0;entryDy=0;fontSize=12;startSize=8;endSize=8;" edge="1" parent="1" source="TbGTZ6DAOj_NYZT9SBEf-17" target="TbGTZ6DAOj_NYZT9SBEf-19">
          <mxGeometry relative="1" as="geometry" />
        </mxCell>
        <mxCell id="TbGTZ6DAOj_NYZT9SBEf-17" value="&lt;p data-pm-slice=&quot;1 1 [&amp;quot;ordered_list&amp;quot;,{&amp;quot;spread&amp;quot;:false,&amp;quot;startingNumber&amp;quot;:1,&amp;quot;start&amp;quot;:1496,&amp;quot;end&amp;quot;:1820},&amp;quot;regular_list_item&amp;quot;,{&amp;quot;start&amp;quot;:1546,&amp;quot;end&amp;quot;:1779},&amp;quot;list&amp;quot;,{&amp;quot;spread&amp;quot;:false,&amp;quot;start&amp;quot;:1568,&amp;quot;end&amp;quot;:1779},&amp;quot;regular_list_item&amp;quot;,{&amp;quot;start&amp;quot;:1568,&amp;quot;end&amp;quot;:1779},&amp;quot;list&amp;quot;,{&amp;quot;spread&amp;quot;:false,&amp;quot;start&amp;quot;:1594,&amp;quot;end&amp;quot;:1779},&amp;quot;regular_list_item&amp;quot;,{&amp;quot;start&amp;quot;:1649,&amp;quot;end&amp;quot;:1779},&amp;quot;list&amp;quot;,{&amp;quot;spread&amp;quot;:false,&amp;quot;start&amp;quot;:1661,&amp;quot;end&amp;quot;:1779},&amp;quot;regular_list_item&amp;quot;,{&amp;quot;start&amp;quot;:1687,&amp;quot;end&amp;quot;:1749}]&quot;&gt;頁框是否已滿&lt;/p&gt;" style="rhombus;whiteSpace=wrap;html=1;" vertex="1" parent="1">
          <mxGeometry x="-365" y="240" width="210" height="80" as="geometry" />
        </mxCell>
        <mxCell id="TbGTZ6DAOj_NYZT9SBEf-23" style="edgeStyle=none;curved=1;rounded=0;orthogonalLoop=1;jettySize=auto;html=1;entryX=0.5;entryY=0;entryDx=0;entryDy=0;fontSize=12;startSize=8;endSize=8;" edge="1" parent="1" source="TbGTZ6DAOj_NYZT9SBEf-19" target="TbGTZ6DAOj_NYZT9SBEf-22">
          <mxGeometry relative="1" as="geometry" />
        </mxCell>
        <mxCell id="TbGTZ6DAOj_NYZT9SBEf-19" value="&lt;p data-pm-slice=&quot;1 1 [&amp;quot;ordered_list&amp;quot;,{&amp;quot;spread&amp;quot;:false,&amp;quot;startingNumber&amp;quot;:1,&amp;quot;start&amp;quot;:1496,&amp;quot;end&amp;quot;:1820},&amp;quot;regular_list_item&amp;quot;,{&amp;quot;start&amp;quot;:1546,&amp;quot;end&amp;quot;:1779},&amp;quot;list&amp;quot;,{&amp;quot;spread&amp;quot;:false,&amp;quot;start&amp;quot;:1568,&amp;quot;end&amp;quot;:1779},&amp;quot;regular_list_item&amp;quot;,{&amp;quot;start&amp;quot;:1568,&amp;quot;end&amp;quot;:1779},&amp;quot;list&amp;quot;,{&amp;quot;spread&amp;quot;:false,&amp;quot;start&amp;quot;:1594,&amp;quot;end&amp;quot;:1779},&amp;quot;regular_list_item&amp;quot;,{&amp;quot;start&amp;quot;:1649,&amp;quot;end&amp;quot;:1779},&amp;quot;list&amp;quot;,{&amp;quot;spread&amp;quot;:false,&amp;quot;start&amp;quot;:1661,&amp;quot;end&amp;quot;:1779},&amp;quot;regular_list_item&amp;quot;,{&amp;quot;start&amp;quot;:1687,&amp;quot;end&amp;quot;:1749},&amp;quot;list&amp;quot;,{&amp;quot;spread&amp;quot;:false,&amp;quot;start&amp;quot;:1705,&amp;quot;end&amp;quot;:1749},&amp;quot;regular_list_item&amp;quot;,{&amp;quot;start&amp;quot;:1705,&amp;quot;end&amp;quot;:1716}]&quot;&gt;找到頻率最低的頁面&lt;/p&gt;" style="rounded=1;whiteSpace=wrap;html=1;" vertex="1" parent="1">
          <mxGeometry x="-330" y="360" width="140" height="60" as="geometry" />
        </mxCell>
        <mxCell id="TbGTZ6DAOj_NYZT9SBEf-21" value="是" style="text;html=1;align=center;verticalAlign=middle;resizable=0;points=[];autosize=1;strokeColor=none;fillColor=none;fontSize=16;" vertex="1" parent="1">
          <mxGeometry x="-256" y="321" width="40" height="30" as="geometry" />
        </mxCell>
        <mxCell id="TbGTZ6DAOj_NYZT9SBEf-25" style="edgeStyle=none;curved=1;rounded=0;orthogonalLoop=1;jettySize=auto;html=1;exitX=0.5;exitY=1;exitDx=0;exitDy=0;entryX=0.5;entryY=0;entryDx=0;entryDy=0;fontSize=12;startSize=8;endSize=8;" edge="1" parent="1" source="TbGTZ6DAOj_NYZT9SBEf-22" target="TbGTZ6DAOj_NYZT9SBEf-24">
          <mxGeometry relative="1" as="geometry" />
        </mxCell>
        <mxCell id="TbGTZ6DAOj_NYZT9SBEf-22" value="&lt;p data-pm-slice=&quot;1 1 [&amp;quot;ordered_list&amp;quot;,{&amp;quot;spread&amp;quot;:false,&amp;quot;startingNumber&amp;quot;:1,&amp;quot;start&amp;quot;:1496,&amp;quot;end&amp;quot;:1820},&amp;quot;regular_list_item&amp;quot;,{&amp;quot;start&amp;quot;:1546,&amp;quot;end&amp;quot;:1779},&amp;quot;list&amp;quot;,{&amp;quot;spread&amp;quot;:false,&amp;quot;start&amp;quot;:1568,&amp;quot;end&amp;quot;:1779},&amp;quot;regular_list_item&amp;quot;,{&amp;quot;start&amp;quot;:1568,&amp;quot;end&amp;quot;:1779},&amp;quot;list&amp;quot;,{&amp;quot;spread&amp;quot;:false,&amp;quot;start&amp;quot;:1594,&amp;quot;end&amp;quot;:1779},&amp;quot;regular_list_item&amp;quot;,{&amp;quot;start&amp;quot;:1649,&amp;quot;end&amp;quot;:1779},&amp;quot;list&amp;quot;,{&amp;quot;spread&amp;quot;:false,&amp;quot;start&amp;quot;:1661,&amp;quot;end&amp;quot;:1779},&amp;quot;regular_list_item&amp;quot;,{&amp;quot;start&amp;quot;:1687,&amp;quot;end&amp;quot;:1749},&amp;quot;list&amp;quot;,{&amp;quot;spread&amp;quot;:false,&amp;quot;start&amp;quot;:1705,&amp;quot;end&amp;quot;:1749},&amp;quot;regular_list_item&amp;quot;,{&amp;quot;start&amp;quot;:1726,&amp;quot;end&amp;quot;:1749}]&quot;&gt;是否有多個頁面頻率相同&lt;/p&gt;" style="rhombus;whiteSpace=wrap;html=1;" vertex="1" parent="1">
          <mxGeometry x="-370" y="460" width="220" height="80" as="geometry" />
        </mxCell>
        <mxCell id="TbGTZ6DAOj_NYZT9SBEf-28" style="edgeStyle=none;curved=1;rounded=0;orthogonalLoop=1;jettySize=auto;html=1;fontSize=12;startSize=8;endSize=8;" edge="1" parent="1" source="TbGTZ6DAOj_NYZT9SBEf-24" target="TbGTZ6DAOj_NYZT9SBEf-27">
          <mxGeometry relative="1" as="geometry" />
        </mxCell>
        <mxCell id="TbGTZ6DAOj_NYZT9SBEf-24" value="&lt;p data-pm-slice=&quot;1 1 [&amp;quot;ordered_list&amp;quot;,{&amp;quot;spread&amp;quot;:false,&amp;quot;startingNumber&amp;quot;:1,&amp;quot;start&amp;quot;:1496,&amp;quot;end&amp;quot;:1820},&amp;quot;regular_list_item&amp;quot;,{&amp;quot;start&amp;quot;:1546,&amp;quot;end&amp;quot;:1779},&amp;quot;list&amp;quot;,{&amp;quot;spread&amp;quot;:false,&amp;quot;start&amp;quot;:1568,&amp;quot;end&amp;quot;:1779},&amp;quot;regular_list_item&amp;quot;,{&amp;quot;start&amp;quot;:1568,&amp;quot;end&amp;quot;:1779},&amp;quot;list&amp;quot;,{&amp;quot;spread&amp;quot;:false,&amp;quot;start&amp;quot;:1594,&amp;quot;end&amp;quot;:1779},&amp;quot;regular_list_item&amp;quot;,{&amp;quot;start&amp;quot;:1649,&amp;quot;end&amp;quot;:1779},&amp;quot;list&amp;quot;,{&amp;quot;spread&amp;quot;:false,&amp;quot;start&amp;quot;:1661,&amp;quot;end&amp;quot;:1779},&amp;quot;regular_list_item&amp;quot;,{&amp;quot;start&amp;quot;:1687,&amp;quot;end&amp;quot;:1749},&amp;quot;list&amp;quot;,{&amp;quot;spread&amp;quot;:false,&amp;quot;start&amp;quot;:1705,&amp;quot;end&amp;quot;:1749},&amp;quot;regular_list_item&amp;quot;,{&amp;quot;start&amp;quot;:1726,&amp;quot;end&amp;quot;:1749}]&quot;&gt;移除最久未使用的頁面&lt;/p&gt;" style="rounded=1;whiteSpace=wrap;html=1;" vertex="1" parent="1">
          <mxGeometry x="-330" y="580" width="140" height="60" as="geometry" />
        </mxCell>
        <mxCell id="TbGTZ6DAOj_NYZT9SBEf-26" value="是" style="text;html=1;align=center;verticalAlign=middle;resizable=0;points=[];autosize=1;strokeColor=none;fillColor=none;fontSize=16;" vertex="1" parent="1">
          <mxGeometry x="-256" y="541" width="40" height="30" as="geometry" />
        </mxCell>
        <mxCell id="TbGTZ6DAOj_NYZT9SBEf-27" value="&lt;p data-pm-slice=&quot;1 1 [&amp;quot;ordered_list&amp;quot;,{&amp;quot;spread&amp;quot;:false,&amp;quot;startingNumber&amp;quot;:1,&amp;quot;start&amp;quot;:1496,&amp;quot;end&amp;quot;:1820},&amp;quot;regular_list_item&amp;quot;,{&amp;quot;start&amp;quot;:1546,&amp;quot;end&amp;quot;:1779},&amp;quot;list&amp;quot;,{&amp;quot;spread&amp;quot;:false,&amp;quot;start&amp;quot;:1568,&amp;quot;end&amp;quot;:1779},&amp;quot;regular_list_item&amp;quot;,{&amp;quot;start&amp;quot;:1568,&amp;quot;end&amp;quot;:1779},&amp;quot;list&amp;quot;,{&amp;quot;spread&amp;quot;:false,&amp;quot;start&amp;quot;:1594,&amp;quot;end&amp;quot;:1779},&amp;quot;regular_list_item&amp;quot;,{&amp;quot;start&amp;quot;:1649,&amp;quot;end&amp;quot;:1779},&amp;quot;list&amp;quot;,{&amp;quot;spread&amp;quot;:false,&amp;quot;start&amp;quot;:1661,&amp;quot;end&amp;quot;:1779},&amp;quot;regular_list_item&amp;quot;,{&amp;quot;start&amp;quot;:1757,&amp;quot;end&amp;quot;:1779}]&quot;&gt;新頁面加入 &lt;code&gt;deque&lt;/code&gt;，頻率設為 1&lt;/p&gt;" style="rounded=1;whiteSpace=wrap;html=1;" vertex="1" parent="1">
          <mxGeometry x="-320" y="681" width="120" height="60" as="geometry" />
        </mxCell>
        <mxCell id="TbGTZ6DAOj_NYZT9SBEf-31" value="否" style="text;html=1;align=center;verticalAlign=middle;resizable=0;points=[];autosize=1;strokeColor=none;fillColor=none;fontSize=16;" vertex="1" parent="1">
          <mxGeometry x="-390" y="501" width="40" height="30" as="geometry" />
        </mxCell>
        <mxCell id="TbGTZ6DAOj_NYZT9SBEf-33" value="" style="edgeStyle=elbowEdgeStyle;elbow=horizontal;endArrow=classic;html=1;curved=0;rounded=0;endSize=8;startSize=8;fontSize=12;exitX=0;exitY=0.5;exitDx=0;exitDy=0;" edge="1" parent="1" source="TbGTZ6DAOj_NYZT9SBEf-17">
          <mxGeometry width="50" height="50" relative="1" as="geometry">
            <mxPoint x="-220" y="470" as="sourcePoint" />
            <mxPoint x="-320" y="720" as="targetPoint" />
            <Array as="points">
              <mxPoint x="-390" y="490" />
            </Array>
          </mxGeometry>
        </mxCell>
        <mxCell id="TbGTZ6DAOj_NYZT9SBEf-34" value="" style="edgeStyle=elbowEdgeStyle;elbow=horizontal;endArrow=classic;html=1;curved=0;rounded=0;endSize=8;startSize=8;fontSize=12;exitX=0;exitY=0.5;exitDx=0;exitDy=0;" edge="1" parent="1" source="TbGTZ6DAOj_NYZT9SBEf-22">
          <mxGeometry width="50" height="50" relative="1" as="geometry">
            <mxPoint x="-220" y="470" as="sourcePoint" />
            <mxPoint x="-320" y="720" as="targetPoint" />
            <Array as="points">
              <mxPoint x="-390" y="610" />
            </Array>
          </mxGeometry>
        </mxCell>
        <mxCell id="TbGTZ6DAOj_NYZT9SBEf-35" value="否" style="text;html=1;align=center;verticalAlign=middle;resizable=0;points=[];autosize=1;strokeColor=none;fillColor=none;fontSize=16;" vertex="1" parent="1">
          <mxGeometry x="-396" y="281" width="40" height="30" as="geometry" />
        </mxCell>
        <mxCell id="TbGTZ6DAOj_NYZT9SBEf-36" value="&lt;p data-pm-slice=&quot;1 1 [&amp;quot;ordered_list&amp;quot;,{&amp;quot;spread&amp;quot;:false,&amp;quot;startingNumber&amp;quot;:1,&amp;quot;start&amp;quot;:1496,&amp;quot;end&amp;quot;:1820},&amp;quot;regular_list_item&amp;quot;,{&amp;quot;start&amp;quot;:1546,&amp;quot;end&amp;quot;:1779},&amp;quot;list&amp;quot;,{&amp;quot;spread&amp;quot;:false,&amp;quot;start&amp;quot;:1568,&amp;quot;end&amp;quot;:1779},&amp;quot;regular_list_item&amp;quot;,{&amp;quot;start&amp;quot;:1568,&amp;quot;end&amp;quot;:1779},&amp;quot;list&amp;quot;,{&amp;quot;spread&amp;quot;:false,&amp;quot;start&amp;quot;:1594,&amp;quot;end&amp;quot;:1779},&amp;quot;regular_list_item&amp;quot;,{&amp;quot;start&amp;quot;:1594,&amp;quot;end&amp;quot;:1643},&amp;quot;list&amp;quot;,{&amp;quot;spread&amp;quot;:false,&amp;quot;start&amp;quot;:1606,&amp;quot;end&amp;quot;:1643},&amp;quot;regular_list_item&amp;quot;,{&amp;quot;start&amp;quot;:1624,&amp;quot;end&amp;quot;:1643}]&quot;&gt;移動該頁面到 &lt;code&gt;deque&lt;/code&gt; 頭部&lt;/p&gt;" style="rounded=1;whiteSpace=wrap;html=1;" vertex="1" parent="1">
          <mxGeometry x="-140" y="240" width="160" height="60" as="geometry" />
        </mxCell>
        <mxCell id="TbGTZ6DAOj_NYZT9SBEf-46" style="edgeStyle=none;curved=1;rounded=0;orthogonalLoop=1;jettySize=auto;html=1;entryX=0.5;entryY=0;entryDx=0;entryDy=0;fontSize=12;startSize=8;endSize=8;" edge="1" parent="1" source="TbGTZ6DAOj_NYZT9SBEf-38" target="TbGTZ6DAOj_NYZT9SBEf-45">
          <mxGeometry relative="1" as="geometry" />
        </mxCell>
        <mxCell id="TbGTZ6DAOj_NYZT9SBEf-38" value="是否還有頁面要加入" style="rhombus;whiteSpace=wrap;html=1;" vertex="1" parent="1">
          <mxGeometry x="-270" y="790" width="220" height="80" as="geometry" />
        </mxCell>
        <mxCell id="TbGTZ6DAOj_NYZT9SBEf-41" value="" style="edgeStyle=elbowEdgeStyle;elbow=vertical;endArrow=classic;html=1;curved=0;rounded=0;endSize=8;startSize=8;fontSize=12;entryX=0.5;entryY=0;entryDx=0;entryDy=0;exitX=0.5;exitY=1;exitDx=0;exitDy=0;" edge="1" parent="1" source="TbGTZ6DAOj_NYZT9SBEf-27" target="TbGTZ6DAOj_NYZT9SBEf-38">
          <mxGeometry width="50" height="50" relative="1" as="geometry">
            <mxPoint x="-220" y="710" as="sourcePoint" />
            <mxPoint x="-170" y="660" as="targetPoint" />
          </mxGeometry>
        </mxCell>
        <mxCell id="TbGTZ6DAOj_NYZT9SBEf-42" value="" style="edgeStyle=elbowEdgeStyle;elbow=vertical;endArrow=classic;html=1;curved=0;rounded=0;endSize=8;startSize=8;fontSize=12;exitX=0.5;exitY=1;exitDx=0;exitDy=0;" edge="1" parent="1" source="TbGTZ6DAOj_NYZT9SBEf-36" target="TbGTZ6DAOj_NYZT9SBEf-38">
          <mxGeometry width="50" height="50" relative="1" as="geometry">
            <mxPoint x="-220" y="710" as="sourcePoint" />
            <mxPoint x="-170" y="660" as="targetPoint" />
            <Array as="points">
              <mxPoint x="-160" y="570" />
            </Array>
          </mxGeometry>
        </mxCell>
        <mxCell id="TbGTZ6DAOj_NYZT9SBEf-43" value="" style="edgeStyle=elbowEdgeStyle;elbow=horizontal;endArrow=classic;html=1;curved=0;rounded=0;endSize=8;startSize=8;fontSize=12;exitX=1;exitY=0.5;exitDx=0;exitDy=0;entryX=1;entryY=0.5;entryDx=0;entryDy=0;" edge="1" parent="1" source="TbGTZ6DAOj_NYZT9SBEf-38" target="TbGTZ6DAOj_NYZT9SBEf-4">
          <mxGeometry width="50" height="50" relative="1" as="geometry">
            <mxPoint x="-220" y="590" as="sourcePoint" />
            <mxPoint x="-170" y="540" as="targetPoint" />
            <Array as="points">
              <mxPoint x="50" y="430" />
            </Array>
          </mxGeometry>
        </mxCell>
        <mxCell id="TbGTZ6DAOj_NYZT9SBEf-44" value="是" style="text;html=1;align=center;verticalAlign=middle;resizable=0;points=[];autosize=1;strokeColor=none;fillColor=none;fontSize=16;" vertex="1" parent="1">
          <mxGeometry x="-46" y="801" width="40" height="30" as="geometry" />
        </mxCell>
        <mxCell id="TbGTZ6DAOj_NYZT9SBEf-48" style="edgeStyle=none;curved=1;rounded=0;orthogonalLoop=1;jettySize=auto;html=1;fontSize=12;startSize=8;endSize=8;" edge="1" parent="1" source="TbGTZ6DAOj_NYZT9SBEf-45" target="TbGTZ6DAOj_NYZT9SBEf-47">
          <mxGeometry relative="1" as="geometry" />
        </mxCell>
        <mxCell id="TbGTZ6DAOj_NYZT9SBEf-45" value="&lt;p data-pm-slice=&quot;1 1 [&amp;quot;ordered_list&amp;quot;,{&amp;quot;spread&amp;quot;:false,&amp;quot;startingNumber&amp;quot;:1,&amp;quot;start&amp;quot;:1496,&amp;quot;end&amp;quot;:1820},&amp;quot;regular_list_item&amp;quot;,{&amp;quot;start&amp;quot;:1780,&amp;quot;end&amp;quot;:1814}]&quot;&gt;輸出 Page Fault 和 Page Replace 次數&lt;/p&gt;" style="rounded=1;whiteSpace=wrap;html=1;" vertex="1" parent="1">
          <mxGeometry x="-220" y="914" width="120" height="60" as="geometry" />
        </mxCell>
        <mxCell id="TbGTZ6DAOj_NYZT9SBEf-47" value="結束" style="ellipse;whiteSpace=wrap;html=1;" vertex="1" parent="1">
          <mxGeometry x="-220" y="1020" width="120" height="80" as="geometry" />
        </mxCell>
      </root>
    </mxGraphModel>
  </diagram>
</mxfile>
